<?xml version="1.0" encoding="utf-8"?>
<!-- Generator: Adobe Illustrator 23.0.1, SVG Export Plug-In . SVG Version: 6.00 Build 0)  -->
<svg version="1.1" id="Layer_1" xmlns="http://www.w3.org/2000/svg" xmlns:xlink="http://www.w3.org/1999/xlink" x="0px" y="0px"
	 viewBox="0 0 73 73" style="enable-background:new 0 0 73 73;" xml:space="preserve">
<style type="text/css">
	.st0{fill:#FFFFFF;}
	.st1{fill:#707070;}
</style>
<path class="st0" d="M0-1h73v73H0V-1z"/>
<path class="st1" d="M44.8,9.2c4.1,2,8,3.4,11.4,6.6c5.5,4.8,8.6,11.5,9.5,18.7c0.4,0.5,1.3,1.6,1.3,1.6l0,4.1H6.7l0-3.9L8,34.8
	c1.3-3.9,1.5-7.6,3.5-11.3c2.9-5.2,9.2-11.7,16.6-14.1C32.3,7,41,6.9,44.8,9.2z"/>
<path class="st0" d="M31.8,12c3.5-0.3,6.8-0.3,10.2,0c0,7.8,0,15.6,0,23.5c-3.4,0-6.8,0-10.3,0C31.8,27.7,31.7,19.8,31.8,12z"/>
<path class="st0" d="M30.2,12.4c0.1,7.7,0,15.4,0,23.1c-6.4,0-12.8,0-19.2,0c0.8-4.6,1.9-8.9,4.7-12.7
	C19.3,17.6,24.4,14.4,30.2,12.4z"/>
<path class="st0" d="M43.5,12.4c1,0.4,2,0.8,3,1.2c9.1,3.8,15,12.2,16.2,21.9c-6.4,0-12.8,0-19.2,0C43.5,27.8,43.5,20.1,43.5,12.4z"
	/>
<path class="st1" d="M13.1,43.8c15.4-0.2,30.8,0,46.2-0.1c1.7,1.7,3.4,3.3,5,5c0,4-0.1,8.1,0,12.1c-1.6,1.6-3.2,3.2-4.8,4.8
	c-4.7,0.1-9.5,0-14.2,0c-2.6-2-5.3-5.5-8.4-6.6c-2.7-0.4-10,6.4-10,6.4s-9.2,0.1-13.7,0.2c-1.2-1.6-2.4-3.1-3.6-4.7
	c0.1-4.5-0.4-9.3,0.3-13.8C10.8,46,11.9,44.8,13.1,43.8z"/>
<path class="st0" d="M17,47c13.6,0,27.3,0,40.9,0c1,1.1,2.1,2.1,3.1,3.1c0,3.2,0,6.4,0,9.6c-1.1,1-2.1,2-3.2,3.1
	c-3.5,0-7.2,0.3-10.7-0.2c-3-1.5-5.2-4.8-8.2-6.5c-4.8-1.2-6.9,2.1-10.4,4.5c-3.5,3.5-8.9,1.8-13.5,2.2c-0.7-1-1.5-1.9-2.3-2.9
	c0-3.7-0.1-7.4,0-11.1C14.2,47.3,14.9,47,17,47z"/>
<g>
	<path class="st1" d="M37.1,59.2c-3.7,0.9-6.5,5-10,6.4c-4.5,0.5-9.2,0.1-13.7,0.2c-1.2-1.6-2.4-3.1-3.6-4.7
		c0.1-4.5-0.4-9.3,0.3-13.8c1-1.3,2.1-2.4,3.3-3.4c3.7,0,7.4-0.1,11.2-0.1"/>
	<path class="st0" d="M34.9,56.2c-3,1.7-5.1,4.9-8.2,6.5c-3.5,0.4-7.1,0.1-10.7,0.2c-1-1-2.1-2.1-3.2-3.1c0-3.2,0-6.4,0-9.6
		c1.1-1,2.1-2.1,3.1-3.1c2.8,0,9.5-0.1,12.3-0.1"/>
</g>
</svg>
