<?xml version="1.0" encoding="utf-8"?>
<!-- Generator: Adobe Illustrator 23.0.1, SVG Export Plug-In . SVG Version: 6.00 Build 0)  -->
<svg version="1.1" id="Layer_1" xmlns="http://www.w3.org/2000/svg" xmlns:xlink="http://www.w3.org/1999/xlink" x="0px" y="0px"
	 viewBox="0 0 73 73" style="enable-background:new 0 0 73 73;" xml:space="preserve">
<style type="text/css">
	.st0{fill:#FFFFFF;}
	.st1{fill:#707071;}
</style>
<path class="st0" d="M0,0h73v73H0V0z"/>
<path class="st1" d="M38.3,9.4c0,0,5.9-0.3,8.8,0.5c-1.2,0.6-3.8,1.7-3.8,1.7l-0.1,8.9h-5L38.3,9.4z"/>
<path class="st1" d="M34.2,9l1.9,0.8c0,0,0,14.8,0.2,22.2c0,1.6,0.9,2.6,1.8,3.9c2.7,3.9,5.4,7.8,8.1,11.6c1.9-2.3,3.7-4.5,5.6-6.8
	c6.4,8,12.7,16.1,19,24.2c-22.8,0-45.7,0-68.5,0c5-6.8,10-13.7,15-20.5c1.7,1.8,3.4,3.6,5.2,5.4c3.2-4.6,6.3-9.3,9.6-13.8
	c1-1.7,2.3-2.9,2.2-5C34.4,23.7,34.2,9,34.2,9z"/>
<path class="st1" d="M45.2,11.7l12.4,0.1l-1.7,5.5l1.7,5.7L45,22.9L45.2,11.7z"/>
<path class="st0" d="M35,35.8C38.8,41,42.3,46.3,46,51.5c1.9-2.3,3.8-4.6,5.7-6.9c4.8,6,9.6,12.1,14.3,18.2c-19.7,0-39.4,0-59.2,0
	c3.5-4.9,7.1-9.8,10.7-14.7c1.7,1.8,3.4,3.7,5.2,5.5c3.6-5.1,7-10.2,10.6-15.3C33.9,37.5,34.5,36.7,35,35.8z"/>
</svg>
