<?xml version="1.0" encoding="utf-8"?>
<!-- Generator: Adobe Illustrator 24.3.0, SVG Export Plug-In . SVG Version: 6.00 Build 0)  -->
<svg version="1.1" id="Layer_1" xmlns="http://www.w3.org/2000/svg" xmlns:xlink="http://www.w3.org/1999/xlink" x="0px" y="0px"
	 viewBox="0 0 73 73" style="enable-background:new 0 0 73 73;" xml:space="preserve">
<style type="text/css">
	.st0{fill:#FFFFFF;}
	.st1{fill:#707071;}
</style>
<path class="st0" d="M0,0h73v73H0V0z"/>
<g>
	<rect x="8.8" y="62.9" class="st1" width="21.2" height="2"/>
	<g>
		<path class="st1" d="M27.6,61.2c-0.1-0.3-4.8-27.6,15.4-46.5c0.7-0.6,2.2-0.8,3.5-0.8c0-1.1,0.1-2.3,0.9-2.9
			c3.7-2.8,8-5.2,12.6-7.2l1-0.4c0,0,4.7,8.4,2.7,17.2c-0.1,0.5-0.3,1.2-3.4,1.2c2.3,2.2,2,2.8,1.8,3.3c-0.9,1.8-2.1,3.6-3.5,5.3
			c-0.3,0.4-1.1,1.3-5.9-0.8c1.4,4.9,0.7,5.5,0.3,5.8c-5.1,4.1-9.1,6.4-12,8.1c-4.5,2.6-9.1,7.8-9.1,7.8s-0.6-23.7,23.5-40.2L57,10
			c0,0-0.5,2.4-4.6,5.8c-9.1,7.8-13.9,16-16.2,22.1C35,41,34.3,43.8,33.9,46c1.5-1.7,3.5-2.9,6.1-4.4c3-1.7,6.6-3.9,11.5-7.8
			c0.1-0.9-1.3-7.4-1.3-7.4s6.1,2.3,6.9,2.2c1.2-1.4,2.2-2.8,3-4.3c-0.5-0.6-4-4.4-4-4.4s4.9-0.3,5.7-0.4c1.3-6.2-0.9-11.7-1.9-13.7
			c-4.1,1.8-7.9,4-11.3,6.5c-0.1,0.3-0.6,2.9-0.6,2.9s-3.4,0.4-3.7,0.6C27,32.5,29.1,55.3,29.5,60c0.1,1.8-1.3,3.5-1.3,3.5
			L27.6,61.2z"/>
	</g>
</g>
</svg>
