<svg version="1.1" aria-hidden="true" xmlns="http://www.w3.org/2000/svg" xmlns:xlink="http://www.w3.org/1999/xlink" x="0px" y="0px" viewBox="0 0 42 42" enable-background="new 0 0 42 42" xml:space="preserve" aria-labelledby="linkedin-svg">
	 <title class="linkedin-svg">LinkedIn</title>
<g>
	<path fill="#E0E0E0" d="M12,35H6V17h6V35z M9.6,13.9c-2,0-3.6-1.6-3.6-3.6c0-2,1.6-3.7,3.6-3.7c2,0,3.6,1.6,3.6,3.7&#10;&#9;&#9;C13.2,12.3,11.6,13.9,9.6,13.9L9.6,13.9z M35,35h-6V24.9c0-1.6-1.9-3-3.5-3c-1.6,0-3.5,1.4-3.5,3V35h-6V17h6v2.8&#10;&#9;&#9;c1-1.6,3.7-2.8,5.5-2.8c3.8,0,7.5,3.2,7.5,7.1V35z M34.8,35.6"/>
</g>
</svg>