<svg id="Layer_1" data-name="Layer 1" xmlns="http://www.w3.org/2000/svg" viewBox="0 0 73 73"><defs><style>.cls-1{fill:#717272;}</style></defs><path class="cls-1" d="M34.09,10.51a14.29,14.29,0,0,0-11.7,5.42,8.71,8.71,0,0,0-1,9.27,12.34,12.34,0,0,0-.74,1.39c-2.37,5.34-1.78,11.86-1.78,11.86h3a21.76,21.76,0,0,1,2.37-13c3.56-6.52,8.89-7.12,8.89-7.12-2.37-.39-6.07,1.07-9,3.67a4.93,4.93,0,0,1,1.08-3.8,10.74,10.74,0,0,1,8.93-4.1,25,25,0,0,1,9,2c-.5.53-1,1.09-1.55,1.74-2.43,2.91-5.45,6.54-7.16,7.39a10,10,0,0,1-4.15.8,9,9,0,0,1-3.85-.76c-.42,1-1,2.28-1.37,3.28a12.77,12.77,0,0,0,5.22,1A13.51,13.51,0,0,0,36,28.38c2.37-1.18,5.33-4.74,8.3-8.3a19.22,19.22,0,0,1,5.33-4.74S42,10.51,34.09,10.51Z"/><path class="cls-1" d="M61.46,51.49a14.32,14.32,0,0,0,1.28-12.83,8.71,8.71,0,0,0-7.46-5.6,11.48,11.48,0,0,0-.81-1.35c-3.39-4.76-9.31-7.56-9.31-7.56l-1.5,2.55a21.71,21.71,0,0,1,10,8.68c3.81,6.37,1.61,11.27,1.61,11.27,1.55-1.85,2.17-5.77,1.4-9.59a4.93,4.93,0,0,1,2.73,2.86,10.72,10.72,0,0,1-1,9.77,24.88,24.88,0,0,1-6.32,6.77c-.19-.69-.42-1.43-.71-2.22-1.27-3.57-2.86-8-2.72-9.92a10,10,0,0,1,1.42-4,9,9,0,0,1,2.62-2.93c-.62-.84-1.47-2-2.13-2.85a12.79,12.79,0,0,0-3.55,4,13.48,13.48,0,0,0-1.91,5.54c-.18,2.63,1.37,7,2.92,11.36a19,19,0,0,1,1.37,7S57.43,58.32,61.46,51.49Z"/><path class="cls-1" d="M12.6,54.73A14.32,14.32,0,0,0,23,62.36a8.71,8.71,0,0,0,8.61-3.57,12.05,12.05,0,0,0,1.59,0c5.81-.5,11.24-4.17,11.24-4.17L43,52a21.72,21.72,0,0,1-12.56,4.22c-7.43,0-10.52-4.35-10.52-4.35.8,2.27,3.86,4.8,7.54,6.09a4.9,4.9,0,0,1-3.85.88A10.69,10.69,0,0,1,15.71,53a25.11,25.11,0,0,1-2.61-8.89c.7.18,1.45.36,2.27.52,3.73.72,8.36,1.62,9.93,2.7A9.94,9.94,0,0,1,28,50.59a9,9,0,0,1,1.2,3.74c1-.1,2.46-.24,3.53-.39a12.81,12.81,0,0,0-1.61-5.07,13.63,13.63,0,0,0-3.8-4.46c-2.18-1.5-6.73-2.38-11.27-3.26a19.19,19.19,0,0,1-6.73-2.38S8.77,47.78,12.6,54.73Z"/></svg>