<?xml version="1.0" encoding="utf-8"?>
<!-- Generator: Adobe Illustrator 23.0.1, SVG Export Plug-In . SVG Version: 6.00 Build 0)  -->
<svg version="1.1" id="Layer_1" xmlns="http://www.w3.org/2000/svg" xmlns:xlink="http://www.w3.org/1999/xlink" x="0px" y="0px"
	 viewBox="0 0 73 73" style="enable-background:new 0 0 73 73;" xml:space="preserve">
<style type="text/css">
	.st0{fill:#FFFFFF;}
	.st1{fill:#727272;}
</style>
<path class="st0" d="M0,0h73v73H0V0z"/>
<path class="st1" d="M44.3,14.7c2.1,2.2,2.4,4.7,2.9,7.6c3.2,0,6.3,0,9.5,0c0,13.3,0,26.6,0,40c-13.3,0.1-26.5,0-39.8,0
	c0-13.3,0-26.7,0-40c3.2,0.1,6.3,0,9.5,0c0.5-2.6,0.6-5,2.5-7.1C32.8,10.4,40.4,10.2,44.3,14.7z"/>
<path class="st0" d="M41.8,16.2c1.9,1.7,2.1,3.8,2.7,6c-5,0-10.1,0-15.1,0c0.4-2.1,0.6-4.1,2.2-5.7C34.2,13.6,39,13.4,41.8,16.2z"/>
<path class="st0" d="M19.8,25c2.3,0,6.7,0,6.7,0l0.1,6.8l2.8,0l0-6.7l15.5,0l0,6.7l2.6,0l0.1-6.7c0,0,4.2,0,6.5,0
	c0,11.5,0,23,0,34.5c-11.4,0-22.8,0-34.2,0C19.8,48,19.8,36.5,19.8,25z"/>
</svg>
