<?xml version="1.0" encoding="UTF-8" standalone="no"?>
<!DOCTYPE svg PUBLIC "-//W3C//DTD SVG 1.1//EN" "http://www.w3.org/Graphics/SVG/1.1/DTD/svg11.dtd">
<svg xmlns="http://www.w3.org/2000/svg" version="1.1" viewBox="0 0 73 73" width="73.0pt" height="73.0pt">
<path d="M 0.00 0.00 L 73.00 0.00 L 73.00 73.00 L 0.00 73.00 L 0.00 0.00 Z" fill="#ffffff" />
<path d="M 27.00 9.00 C 30.33 9.00 33.67 9.00 37.00 9.00 C 36.99 11.15 37.02 13.31 37.01 15.46 C 39.23 16.34 41.44 17.23 43.63 18.18 C 44.95 16.91 46.27 15.63 47.58 14.35 L 49.23 16.16 C 47.47 17.92 45.71 19.68 43.93 21.43 C 40.87 19.64 37.91 18.42 34.50 17.48 C 34.48 15.49 34.48 13.50 34.48 11.51 C 32.83 11.51 31.18 11.51 29.53 11.51 C 29.53 13.51 29.49 15.52 29.48 17.52 C 26.06 18.47 23.18 19.68 20.11 21.47 C 18.69 20.07 17.26 18.67 15.85 17.26 C 14.75 18.40 13.64 19.52 12.51 20.62 C 13.92 22.03 15.31 23.45 16.71 24.86 C 14.96 27.92 13.72 30.85 12.74 34.24 C 10.75 34.26 8.75 34.26 6.75 34.27 C 6.78 35.92 6.78 37.58 6.75 39.24 C 8.75 39.24 10.74 39.22 12.73 39.24 C 13.70 42.64 14.94 45.63 16.70 48.70 C 15.26 50.12 13.84 51.58 12.40 53.01 C 13.57 54.15 14.72 55.30 15.85 56.49 C 17.28 55.04 18.76 53.64 20.20 52.20 C 23.20 53.94 26.15 55.16 29.49 56.10 C 29.51 58.15 29.51 60.20 29.53 62.25 C 31.18 62.23 32.84 62.23 34.49 62.23 C 34.49 60.20 34.51 58.18 34.50 56.15 C 37.89 55.15 40.92 53.89 43.97 52.11 C 45.79 53.89 47.57 55.72 49.37 57.51 L 47.51 59.37 C 46.22 58.06 44.91 56.77 43.60 55.47 C 41.42 56.38 39.23 57.27 37.02 58.12 C 37.02 60.33 36.99 62.55 36.99 64.76 C 33.66 64.76 30.33 64.76 27.01 64.76 C 27.01 62.55 26.98 60.34 26.98 58.13 C 24.79 57.25 22.60 56.35 20.43 55.43 C 18.92 56.96 17.38 58.48 15.87 60.01 C 13.53 57.68 11.20 55.34 8.87 53.00 C 10.39 51.48 11.91 49.95 13.43 48.42 C 12.50 46.21 11.59 43.99 10.71 41.76 C 8.56 41.77 6.40 41.74 4.24 41.75 C 4.24 38.42 4.24 35.08 4.24 31.75 C 6.42 31.76 8.59 31.74 10.76 31.75 C 11.61 29.58 12.50 27.43 13.40 25.27 C 11.84 23.74 10.32 22.17 8.77 20.62 C 11.12 18.23 13.49 15.87 15.89 13.52 C 17.42 15.06 18.98 16.57 20.51 18.11 C 22.66 17.23 24.82 16.38 26.99 15.55 C 26.99 13.37 27.01 11.18 27.00 9.00 Z" fill="#727272" />
<path d="M 38.04 22.78 C 37.73 23.55 37.43 24.31 37.12 25.07 C 35.16 24.73 33.09 24.24 31.09 24.29 C 25.03 24.74 19.78 29.82 19.49 35.96 C 19.00 41.91 23.31 47.61 29.07 48.97 C 32.20 49.74 34.91 48.87 37.92 48.15 L 38.87 50.46 C 33.18 52.42 27.33 52.46 22.47 48.51 C 15.66 43.14 15.06 32.35 21.24 26.26 C 25.83 21.57 31.95 20.96 38.04 22.78 Z" fill="#727272" />
<path d="M 39.07 26.11 C 39.80 25.48 40.76 25.30 41.95 25.57 C 43.99 26.48 43.87 29.16 41.85 30.05 C 39.54 31.11 37.45 28.20 39.07 26.11 Z" fill="#727272" />
<path d="M 45.49 26.25 C 53.16 26.24 60.84 26.24 68.51 26.25 C 68.51 27.25 68.51 28.25 68.50 29.25 C 60.84 29.26 53.17 29.26 45.50 29.25 C 45.49 28.25 45.49 27.25 45.49 26.25 Z" fill="#727272" />
<path d="M 39.07 35.11 C 39.80 34.48 40.76 34.30 41.95 34.57 C 43.99 35.48 43.87 38.16 41.85 39.05 C 39.54 40.11 37.45 37.20 39.07 35.11 Z" fill="#727272" />
<path d="M 45.49 35.25 C 53.16 35.24 60.84 35.24 68.51 35.25 C 68.51 36.25 68.51 37.25 68.50 38.25 C 60.84 38.26 53.17 38.26 45.50 38.25 C 45.49 37.25 45.49 36.25 45.49 35.25 Z" fill="#727272" />
<path d="M 39.07 44.11 C 39.80 43.48 40.76 43.30 41.95 43.57 C 43.99 44.48 43.87 47.16 41.85 48.05 C 39.54 49.11 37.46 46.20 39.07 44.11 Z" fill="#727272" />
<path d="M 45.49 44.24 C 53.16 44.24 60.84 44.24 68.51 44.24 C 68.51 45.33 68.51 46.42 68.51 47.50 C 60.84 47.51 53.16 47.51 45.49 47.50 C 45.49 46.42 45.49 45.33 45.49 44.24 Z" fill="#727272" />
</svg>