<?xml version="1.0" encoding="utf-8"?>
<!-- Generator: Adobe Illustrator 23.0.1, SVG Export Plug-In . SVG Version: 6.00 Build 0)  -->
<svg version="1.1" id="Layer_1" xmlns="http://www.w3.org/2000/svg" xmlns:xlink="http://www.w3.org/1999/xlink" x="0px" y="0px"
	 viewBox="0 0 73 73" style="enable-background:new 0 0 73 73;" xml:space="preserve">
<style type="text/css">
	.st0{fill:#FFFFFF;}
	.st1{fill:#717272;}
</style>
<path class="st0" d="M0,0h73v73H0V0z"/>
<path class="st1" d="M52,4.8c2.7,0.7,4.1,3.2,5.7,5.3c-4,2-8,3.9-12,5.9c4,8.2,7.8,16.3,11.8,24.4c1.2,2.8,2.8,5.5,1.7,8.6
	c-0.8,2.9-3.1,4.4-5.6,5.6C45.1,58.8,36.5,62.9,28,67c-2.7,1.3-5.2,2.4-8.3,1.3c-2.6-0.8-3.9-3.2-5.4-5.2c4-2,8.1-3.9,12.1-5.9
	c-3.9-7.7-7.5-15.5-11.5-23.2c-1.4-3.1-3.6-6.5-2.2-10c1-3.2,3.6-4.4,6.4-5.8c8.1-3.8,16.2-7.7,24.3-11.7C46.3,5.2,48.9,3.8,52,4.8z
	"/>
<path class="st0" d="M48.8,7c2.3-1.5,5,1.7,5,1.7L41,15l-14,6.7l-3.1-2.6l19.7-9.6L48.8,7z"/>
<path class="st0" d="M43.1,17.2c3.9,8,7.7,16.1,11.7,24c0.8,1.8,1.9,3.8,2,5.8c-0.1,2.6-1.9,3.8-3.9,4.9
	c-7.3,3.7-14.9,6.9-22.1,10.8c-0.4-2.8-0.9-5.5-2.2-8.1c-3.8-7.3-7.2-14.8-11-22.1c-0.9-2-2.2-4.2-2.2-6.5c0.2-3.3,4-5.7,7-4.3
	c1.5,0.9,2.7,2.4,3.9,3.7C31.8,22.7,37.5,19.9,43.1,17.2z"/>
<path class="st1" d="M44.1,31.8l0.8,1.5l-17.5,8.4l-0.7-1.5L44.1,31.8z"/>
<path class="st1" d="M42.2,27.5L43,29l-17.5,8.4L24.7,36L42.2,27.5z"/>
<path class="st0" d="M27.3,59.7c1.8,4.6-2.3,6-2.3,6s-3.6,1.9-6.8-1.5C21.4,62.3,27.3,59.7,27.3,59.7z"/>
<path class="st1" d="M46.2,36l0.8,1.5l-17.5,8.4l-0.7-1.5L46.2,36z"/>
<path class="st1" d="M48.5,40.6l0.8,1.5l-17.5,8.4L31,49.1L48.5,40.6z"/>
<path class="st1" d="M30.1,28.3l0.7,1.5l-7.4,3.5l-0.7-1.5L30.1,28.3z"/>
<path class="st1" d="M50.6,45.1l0.8,1.5L44,50.1l-0.7-1.5L50.6,45.1z"/>
</svg>
