<?xml version="1.0" encoding="UTF-8" standalone="no"?>
<!DOCTYPE svg PUBLIC "-//W3C//DTD SVG 1.1//EN" "http://www.w3.org/Graphics/SVG/1.1/DTD/svg11.dtd">
<svg xmlns="http://www.w3.org/2000/svg" version="1.1" viewBox="0 0 73 73" width="73.0pt" height="73.0pt">
<path d="M 0.00 0.00 L 73.00 0.00 L 73.00 73.00 L 0.00 73.00 L 0.00 0.00 Z" fill="#ffffff" />
<path d="M 19.67 6.66 C 31.19 6.86 42.72 6.68 54.24 6.76 C 54.26 14.84 54.26 22.92 54.24 31.00 C 53.25 31.00 52.25 31.00 51.26 31.00 C 51.23 23.92 51.27 16.84 51.24 9.76 C 41.67 9.74 32.09 9.74 22.52 9.76 C 22.48 18.92 22.52 28.08 22.50 37.24 C 21.50 37.24 20.50 37.24 19.50 37.24 C 19.61 27.06 19.26 16.83 19.67 6.66 Z" fill="#707070" />
<path d="M 28.00 20.51 C 33.92 20.49 39.84 20.48 45.76 20.52 L 45.76 23.48 C 39.84 23.52 33.92 23.51 28.00 23.49 L 28.00 20.51 Z" fill="#707070" />
<path d="M 28.00 26.76 C 33.92 26.74 39.83 26.73 45.74 26.76 C 45.75 27.84 45.76 28.91 45.77 29.98 C 39.84 30.02 33.92 30.00 28.00 29.99 C 28.00 28.91 28.00 27.84 28.00 26.76 Z" fill="#707070" />
<path d="M 39.55 34.32 C 48.35 34.14 57.18 34.31 65.99 34.25 C 66.01 45.16 66.00 56.08 65.99 66.99 C 46.58 67.00 27.17 67.01 7.76 66.99 C 7.79 58.29 7.66 49.56 7.81 40.87 L 8.13 40.57 C 16.84 40.50 25.64 40.32 34.34 40.68 C 34.16 48.36 34.29 56.06 34.26 63.74 C 36.00 63.74 37.74 63.75 39.48 63.76 C 39.57 53.95 39.39 44.12 39.55 34.32 Z" fill="#707070" />
<path d="M 42.76 37.26 C 49.42 37.25 56.08 37.25 62.74 37.26 C 62.75 46.09 62.75 54.91 62.74 63.74 C 56.08 63.75 49.42 63.75 42.76 63.74 C 42.74 54.91 42.74 46.09 42.76 37.26 Z" fill="#ffffff" />
<path d="M 48.00 42.76 C 51.17 42.74 54.33 42.74 57.50 42.77 C 57.50 43.76 57.50 44.75 57.49 45.74 C 54.33 45.76 51.17 45.75 48.00 45.74 C 48.00 44.75 48.00 43.76 48.00 42.76 Z" fill="#707070" />
<path d="M 11.01 43.76 C 17.67 43.74 24.33 43.74 30.99 43.76 C 31.01 50.42 31.01 57.09 30.99 63.75 C 24.33 63.75 17.67 63.75 11.01 63.75 C 10.99 57.09 10.99 50.42 11.01 43.76 Z" fill="#ffffff" />
<path d="M 16.30 49.08 C 19.44 48.87 22.61 49.04 25.76 49.03 C 25.76 50.01 25.76 50.99 25.76 51.97 C 22.57 52.02 19.38 52.02 16.19 51.97 C 16.21 51.01 16.24 50.04 16.30 49.08 Z" fill="#707070" />
<path d="M 48.00 49.01 C 51.17 48.99 54.34 48.99 57.50 49.01 C 57.50 50.00 57.50 51.00 57.51 51.99 C 54.34 52.01 51.17 52.01 48.00 51.99 C 48.00 51.00 48.00 50.00 48.00 49.01 Z" fill="#707070" />
<path d="M 16.27 55.26 C 19.42 55.24 22.58 55.24 25.74 55.26 C 25.75 56.33 25.76 57.40 25.77 58.47 C 22.59 58.52 19.41 58.52 16.23 58.47 C 16.24 57.40 16.25 56.33 16.27 55.26 Z" fill="#707070" />
<path d="M 48.01 55.26 C 51.17 55.25 54.33 55.24 57.48 55.25 C 57.49 56.33 57.50 57.40 57.51 58.48 C 54.34 58.52 51.17 58.52 47.99 58.49 C 48.00 57.41 48.00 56.33 48.01 55.26 Z" fill="#707070" />
</svg>