<?xml version="1.0" encoding="utf-8"?>
<!-- Generator: Adobe Illustrator 23.0.1, SVG Export Plug-In . SVG Version: 6.00 Build 0)  -->
<svg version="1.1" id="Layer_1" xmlns="http://www.w3.org/2000/svg" xmlns:xlink="http://www.w3.org/1999/xlink" x="0px" y="0px"
	 viewBox="0 0 73 73" style="enable-background:new 0 0 73 73;" xml:space="preserve">
<style type="text/css">
	.st0{fill:#FFFFFF;}
	.st1{fill:#707070;}
</style>
<path class="st0" d="M0,0h73v73H0V0z"/>
<path class="st1" d="M4.8,11.5c14,0,28,0,42,0c0,3.2,0,6.5,0,9.7c5.4,0,10.9,0,16.3,0c1.4,4.7,3,9.4,4.6,14
	c2.2,5.6,1.1,12.5,1.3,18.5c-2.1,0-4.3,0-6.4,0c-0.9,2.1-1.4,4.1-3,5.8c-3,2.8-7.7,3.3-11.1,0.9c-2.4-1.6-3.8-4.7-4.1-6.7
	c-4.6,0-9.2,0-13.7,0c-1,2.9-1.9,4.6-3.7,6.2c-3.3,2.8-8.5,2.8-11.9,0c-1.9-1.6-2.9-3.8-3.8-6.2c-2.2,0-4.3,0-6.5,0
	C4.7,39.7,4.8,25.6,4.8,11.5z"/>
<path class="st0" d="M8.3,15c11.8,0,23.5,0,35.3,0c0,8.7,0,17.3,0,26c1.1,0,2.2,0,3.3,0c0-5.4,0-16.2,0-16.2l13.7,0.1
	c0,0,2.7,7.9,4,11.7c1.5,4.7,0.9,9,1,13.8c-1.2,0-2.3-0.1-3.5-0.1c-2-3.4-4.6-5.7-9-5.4c-3.9,0.2-6.3,2.7-8,5.5
	c-4.8,0.1-9.7,0.1-14.5,0c-1-2-2.3-4.7-4.9-5.7c-2.7-1.5-6.3-1.4-9.1,0c-2.3,1.2-4.1,3.7-5,5.7c-1.1,0-2.2,0-3.3,0
	C8.3,38.5,8.3,26.8,8.3,15z"/>
<path class="st0" d="M18.4,47.4c4-2,8.6,1.2,8.4,5.5c-0.1,4.9-6.2,7.5-9.8,4C13.9,54.1,14.7,49.3,18.4,47.4z"/>
<path class="st0" d="M51.5,48.6c4.1-1.8,8.5,2.5,6.8,6.6c-1.3,3.5-5.7,4.5-8.4,1.9C47.1,54.5,48.1,50,51.5,48.6z"/>
</svg>
