<svg xmlns="http://www.w3.org/2000/svg" viewBox="0 0 72 72"><defs><style>.cls-1{fill:none;}.cls-2{fill:#717171;}</style></defs><title>Aerospace_Apps</title><g id="Layer_2" data-name="Layer 2"><g id="Layer_1-2" data-name="Layer 1"><rect class="cls-1" width="72" height="72"/><polygon class="cls-2" points="52.72 63.22 11.54 63.22 11.54 9.22 52.72 9.22 52.72 29.61 50.2 29.61 50.2 11.68 14.06 11.68 14.06 60.76 50.2 60.76 50.2 50.4 52.72 50.4 52.72 63.22"/><path class="cls-2" d="M32.13,54.67a1.44,1.44,0,1,0,1.46,1.44A1.45,1.45,0,0,0,32.13,54.67Z"/><polygon class="cls-2" points="44.91 50.53 44.91 52.1 19.35 52.1 19.35 17.02 44.91 17.02 44.91 29.71 46.17 29.71 46.17 15.79 18.09 15.79 18.09 53.33 46.17 53.33 46.17 50.53 44.91 50.53"/><path class="cls-2" d="M60.46,47.94H43.75V31.72H60.46ZM44.87,46.85H59.34V32.8H44.87Z"/></g></g></svg>