<?xml version="1.0" encoding="utf-8"?>
<!-- Generator: Adobe Illustrator 23.1.1, SVG Export Plug-In . SVG Version: 6.00 Build 0)  -->
<svg version="1.1" id="Layer_1" xmlns="http://www.w3.org/2000/svg" xmlns:xlink="http://www.w3.org/1999/xlink" x="0px" y="0px"
	 viewBox="0 0 73 73" style="enable-background:new 0 0 73 73;" xml:space="preserve">
<style type="text/css">
	.st0{fill:#FFFFFF;}
	.st1{fill:#717171;}
</style>
<path class="st0" d="M0,0h73v73H0V0z"/>
<g>
	<path class="st1" d="M20.8,3.8c10.7,0,21.5,0,32.2,0c0,4.2,0,8.3,0,12.5c-1.9,0-3.8,0.1-5.6,0.1c0.5,5-2,10.6,3,13.6
		c5,4.7,13.4,8.8,13.8,16.4c0.4,7.8,0,15.7,0.2,23.5c-18.3,0-36.6,0-55,0c0.2-8.3-0.5-16.8,0.4-25c1.7-7.4,11.3-12.2,16.5-17.3
		c0.2-3.7,0.2-7.4,0.1-11.1c-1.9,0-3.8,0-5.7-0.1C20.7,12.1,20.7,7.9,20.8,3.8z"/>
	<path class="st0" d="M24.9,8c7.9,0,15.9,0,23.8,0l0.1,4.1c-8,0.1-16,0.1-24,0V8z"/>
	<path class="st0" d="M30.7,16.3c4.2,0,8.3,0,12.5,0c0,4.4,0,8.8,0,13.2c4.7,4,9.5,7.7,14.1,11.8c1.9,1.7,2.7,3.9,2.9,6.4
		c0.3,6,0,11.9,0.1,17.9c-15.5,0-31,0-46.6,0c0.1-6.4-0.4-13,0.2-19.4c0.4-3,2.3-4.7,4.5-6.5c4.1-3.4,8.3-6.8,12.3-10.4
		C30.6,25,30.6,20.6,30.7,16.3z"/>
	<path class="st1" d="M34.8,37.5c1.4,0,2.7,0,4.1,0c0,2.8,0.1,5.6,0.1,8.3c2.8,0,5.6,0,8.3,0.1c0,1.4,0,2.7,0,4.1
		c-2.8,0-5.6,0-8.3,0.1c0,2.9,0,5.8,0,8.8c-1.4-0.1-2.8-0.2-4.2-0.3c0-2.8,0-5.7,0-8.5c-2.8,0-5.5,0-8.3,0c0-1.4,0-2.8,0-4.2
		c2.8,0,5.5,0,8.3,0C34.8,43.1,34.8,40.3,34.8,37.5z"/>
</g>
</svg>
