<?xml version="1.0" encoding="UTF-8" standalone="no"?>
<!DOCTYPE svg PUBLIC "-//W3C//DTD SVG 1.1//EN" "http://www.w3.org/Graphics/SVG/1.1/DTD/svg11.dtd">
<svg xmlns="http://www.w3.org/2000/svg" version="1.1" viewBox="0 0 73 73" width="73.0pt" height="73.0pt">
<path d="M 0.00 0.00 L 73.00 0.00 L 73.00 73.00 L 0.00 73.00 L 0.00 0.00 Z" fill="#ffffff" />
<path d="M 49.51 9.85 C 50.01 10.77 50.51 11.69 51.01 12.61 C 52.30 12.56 53.59 12.51 54.89 12.47 C 55.27 11.47 55.66 10.47 56.05 9.47 C 57.29 9.89 58.53 10.31 59.76 10.73 C 59.46 11.71 59.16 12.68 58.86 13.65 C 59.83 14.53 60.79 15.41 61.76 16.29 C 62.74 15.90 63.73 15.51 64.71 15.13 C 65.27 16.22 65.83 17.32 66.40 18.41 C 65.48 18.95 64.56 19.48 63.65 20.03 C 63.70 21.35 63.74 22.67 63.79 24.00 C 64.81 24.39 65.83 24.78 66.85 25.17 C 66.41 26.39 65.96 27.61 65.52 28.83 C 64.53 28.54 63.54 28.25 62.55 27.95 C 61.68 28.96 60.80 29.97 59.93 30.98 C 60.35 31.91 60.77 32.85 61.18 33.78 C 60.01 34.36 58.85 34.95 57.68 35.53 C 57.18 34.59 56.68 33.65 56.19 32.71 C 54.84 32.83 53.50 32.94 52.15 33.05 C 51.81 33.99 51.46 34.93 51.11 35.86 C 49.89 35.49 48.67 35.11 47.44 34.74 C 47.74 33.74 48.03 32.74 48.31 31.74 C 47.34 30.84 46.38 29.94 45.41 29.03 C 44.43 29.44 43.46 29.86 42.48 30.27 C 41.92 29.11 41.36 27.96 40.79 26.81 C 41.70 26.30 42.61 25.79 43.52 25.28 C 43.41 23.94 43.30 22.59 43.19 21.24 C 42.24 20.88 41.29 20.51 40.34 20.15 C 40.79 18.92 41.23 17.69 41.68 16.46 C 42.63 16.80 43.58 17.15 44.52 17.49 C 45.43 16.42 46.33 15.35 47.23 14.28 C 46.81 13.33 46.38 12.39 45.94 11.45 C 47.13 10.92 48.32 10.38 49.51 9.85 Z" fill="#707070" />
<path d="M 21.27 15.76 C 23.08 15.76 24.90 15.75 26.72 15.75 C 26.74 17.26 26.75 18.78 26.78 20.30 C 28.65 20.97 30.47 21.70 32.29 22.51 C 33.37 21.48 34.45 20.44 35.53 19.40 C 36.89 20.75 38.25 22.11 39.61 23.47 C 38.57 24.55 37.53 25.63 36.49 26.71 C 37.30 28.52 38.03 30.36 38.71 32.22 C 40.22 32.25 41.74 32.26 43.25 32.28 C 43.25 34.10 43.24 35.92 43.24 37.73 C 41.75 37.74 40.26 37.75 38.76 37.76 C 38.04 39.73 37.27 41.68 36.44 43.61 C 37.50 44.65 38.56 45.70 39.62 46.74 C 38.30 48.07 36.98 49.39 35.65 50.71 C 34.56 49.66 33.47 48.60 32.38 47.55 C 30.52 48.35 28.66 49.12 26.76 49.83 C 26.75 51.30 26.74 52.77 26.73 54.24 C 24.91 54.24 23.10 54.25 21.28 54.25 C 21.26 52.78 21.25 51.30 21.23 49.82 C 19.34 49.12 17.47 48.35 15.62 47.55 C 14.53 48.60 13.44 49.66 12.35 50.71 C 11.02 49.39 9.70 48.07 8.38 46.74 C 9.45 45.69 10.52 44.64 11.58 43.59 C 10.70 41.68 9.91 39.76 9.23 37.77 C 7.74 37.76 6.25 37.74 4.76 37.73 C 4.76 35.91 4.75 34.10 4.75 32.28 C 6.24 32.26 7.74 32.25 9.24 32.23 C 9.93 30.34 10.69 28.48 11.49 26.64 C 10.46 25.61 9.44 24.58 8.41 23.56 C 9.67 22.14 10.94 20.74 12.22 19.34 C 13.26 20.41 14.30 21.49 15.34 22.56 C 17.29 21.77 19.26 21.01 21.24 20.30 C 21.25 18.78 21.26 17.27 21.27 15.76 Z" fill="#707070" />
<path d="M 52.48 16.44 C 57.24 15.49 61.57 20.86 59.28 25.29 C 57.27 29.63 51.45 30.27 48.56 26.43 C 45.64 22.65 47.93 17.38 52.48 16.44 Z" fill="#ffffff" />
<path d="M 21.22 26.28 C 25.59 24.63 30.75 27.28 32.47 31.50 C 34.59 36.08 32.09 41.65 27.51 43.51 C 22.95 45.59 17.26 43.17 15.50 38.51 C 13.24 33.67 16.28 27.82 21.22 26.28 Z" fill="#ffffff" />
<path d="M 53.55 37.49 C 54.75 37.50 55.95 37.50 57.15 37.50 C 57.24 38.49 57.33 39.47 57.43 40.46 C 58.66 40.96 59.89 41.46 61.12 41.97 C 61.86 41.26 62.60 40.55 63.34 39.84 C 64.35 40.68 65.36 41.53 66.37 42.38 C 65.64 43.16 64.90 43.94 64.17 44.73 C 64.71 45.97 65.25 47.22 65.80 48.47 C 66.86 48.49 67.93 48.50 69.00 48.52 C 69.00 49.84 69.00 51.16 69.00 52.47 C 67.97 52.49 66.95 52.52 65.92 52.54 C 65.46 53.80 64.99 55.05 64.52 56.31 C 65.24 57.10 65.97 57.90 66.69 58.70 C 65.77 59.61 64.84 60.52 63.92 61.42 C 63.16 60.72 62.41 60.01 61.65 59.31 C 60.45 59.86 59.25 60.41 58.04 60.96 C 58.02 61.97 57.99 62.99 57.96 64.00 C 56.65 64.00 55.35 64.00 54.04 64.00 C 54.01 63.02 53.99 62.04 53.96 61.05 C 52.68 60.57 51.40 60.08 50.13 59.59 C 49.37 60.28 48.62 60.98 47.87 61.67 C 46.95 60.85 46.03 60.02 45.11 59.20 C 45.74 58.36 46.37 57.52 47.00 56.68 C 46.52 55.48 46.04 54.27 45.57 53.07 C 44.56 53.02 43.55 52.98 42.54 52.93 C 42.44 51.68 42.35 50.42 42.25 49.17 C 43.34 49.07 44.42 48.97 45.51 48.87 C 45.94 47.66 46.38 46.46 46.82 45.25 C 46.11 44.50 45.40 43.74 44.69 42.98 C 45.59 42.04 46.49 41.10 47.40 40.16 C 48.16 40.84 48.93 41.52 49.70 42.20 C 50.95 41.67 52.21 41.13 53.46 40.60 C 53.49 39.56 53.52 38.53 53.55 37.49 Z" fill="#707070" />
<path d="M 52.41 45.42 C 56.94 42.47 62.89 46.79 61.86 51.95 C 61.02 56.63 55.05 58.80 51.54 55.47 C 48.27 52.67 48.77 47.66 52.41 45.42 Z" fill="#ffffff" />
</svg>