<?xml version="1.0" encoding="utf-8"?>
<!-- Generator: Adobe Illustrator 23.0.1, SVG Export Plug-In . SVG Version: 6.00 Build 0)  -->
<svg version="1.1" id="Layer_1" xmlns="http://www.w3.org/2000/svg" xmlns:xlink="http://www.w3.org/1999/xlink" x="0px" y="0px"
	 viewBox="0 0 73 73" style="enable-background:new 0 0 73 73;" xml:space="preserve">
<style type="text/css">
	.st0{fill:#FFFFFF;}
	.st1{fill:#707171;}
</style>
<path class="st0" d="M0,0h73v73H0V0z"/>
<path class="st1" d="M24,5.8c8.6,0,17.2,0,25.7,0l0.1,2.2C48.2,8,46.6,8,45,8c0,6.7-0.1,13.4,0,20c-0.2,3.5,2.3,6.2,3.9,9
	C55,47.4,61.2,57.7,67.4,68C47,68,26.7,68,6.4,68c6.3-10.5,12.6-21.1,19-31.6c1.6-2.8,3.6-5,3.4-8.3c0-6.7-0.1-13.4,0-20
	c-1.6,0-3.2,0-4.8,0V5.8z"/>
<path class="st0" d="M31,8c3.9,0,7.8,0,11.8,0c0,6,0,12,0,18c0,2.8-0.2,5.4,1.4,7.8C50.6,44.5,57,55.1,63.3,65.8
	c-17.6,0-35.2,0-52.8,0C15.6,57.2,20.8,48.6,26,40c2.1-3.5,4.4-6.7,5.5-10.7c1.8,0,3.7,0,5.5,0V27c-2,0-4,0-6,0c0-1.3,0-2.6,0-4
	c2,0,4,0,6,0v-2.2c-2,0-4,0-6,0c0-1.2,0-2.5,0-3.7c2,0,4,0,6,0v-2.2c-2,0-4,0-6,0C31,12.5,31,10.3,31,8z"/>
<path class="st1" d="M25.2,47.4c2.5-0.4,5.2-0.2,7.7-0.2c1.1,1.6,1.6,4.2,4.1,3.8c2.4,0.2,2.7-2.2,3.8-3.8c2.7,0,5.4,0,8,0
	c3.1,5.3,6.2,10.6,9.3,16c-14.2,0-28.4,0-42.5,0c2.5-4.4,5-8.7,7.5-13.1C23.7,49.3,24.3,48,25.2,47.4z"/>
<path class="st1" d="M50.7,50.2c2.5,4.4,5,8.7,7.5,13.1c-14.2,0-28.4,0-42.5,0c3.1-5.4,6.2-10.7,9.3-16c2.7,0,5.4,0,8,0
	c1.2,1.6,1.4,4,3.8,3.8c2.5,0.4,2.9-2.1,4.1-3.8c2.6,0,5.2-0.2,7.7,0.2C49.5,48,50,49.3,50.7,50.2z"/>
<path class="st0" d="M25.4,52.3c2.3-0.9,4.8,0.1,4.9,2.7c0.5,2.4-2.1,4.2-4.3,3.5C23.2,57.9,22.5,53.5,25.4,52.3z"/>
<path class="st0" d="M35.1,44c2.6-1.1,5.5,0.2,5.7,3.2c0.5,2.7-2.5,4.8-4.9,4.1C32.5,50.5,31.8,45.5,35.1,44z"/>
</svg>
