<?xml version="1.0" encoding="UTF-8" standalone="no"?>
<!DOCTYPE svg PUBLIC "-//W3C//DTD SVG 1.1//EN" "http://www.w3.org/Graphics/SVG/1.1/DTD/svg11.dtd">
<svg xmlns="http://www.w3.org/2000/svg" version="1.1" viewBox="0 0 65 47" width="65.0pt" height="47.0pt">
<path d="M 0.00 0.00 L 3.29 0.00 C 3.22 11.64 3.26 23.29 3.27 34.93 C 10.37 28.32 16.95 21.16 24.00 14.49 C 27.81 18.12 31.55 21.86 35.17 25.68 C 40.16 21.17 45.18 16.15 49.69 11.15 C 47.62 9.34 45.70 7.44 43.97 5.30 C 50.44 3.64 56.99 2.10 63.33 0.00 L 64.52 0.00 C 62.56 6.72 60.97 13.55 58.99 20.26 C 56.81 18.59 54.99 16.60 53.01 14.72 C 47.12 20.25 41.62 26.25 35.73 31.78 L 35.26 31.77 C 31.36 28.26 27.90 24.26 24.00 20.73 C 17.33 27.14 10.88 33.80 4.30 40.31 C 3.14 41.28 3.32 42.36 3.14 43.73 C 22.42 43.75 41.71 43.77 61.00 43.71 C 62.34 43.68 63.67 43.97 65.00 44.56 L 65.00 47.00 L 0.00 47.00 L 0.00 0.00 Z" fill="#707171" />
<path d="M 3.29 0.00 L 63.33 0.00 C 56.99 2.10 50.44 3.64 43.97 5.30 C 45.70 7.44 47.62 9.34 49.69 11.15 C 45.18 16.15 40.16 21.17 35.17 25.68 C 31.55 21.86 27.81 18.12 24.00 14.49 C 16.95 21.16 10.37 28.32 3.27 34.93 C 3.26 23.29 3.22 11.64 3.29 0.00 Z" fill="#ffffff" />
<path d="M 64.52 0.00 L 65.00 0.00 L 65.00 44.56 C 63.67 43.97 62.34 43.68 61.00 43.71 C 41.71 43.77 22.42 43.75 3.14 43.73 C 3.32 42.36 3.14 41.28 4.30 40.31 C 10.88 33.80 17.33 27.14 24.00 20.73 C 27.90 24.26 31.36 28.26 35.26 31.77 L 35.73 31.78 C 41.62 26.25 47.12 20.25 53.01 14.72 C 54.99 16.60 56.81 18.59 58.99 20.26 C 60.97 13.55 62.56 6.72 64.52 0.00 Z" fill="#ffffff" />
</svg>