<?xml version="1.0" encoding="utf-8"?>
<!-- Generator: Adobe Illustrator 23.0.1, SVG Export Plug-In . SVG Version: 6.00 Build 0)  -->
<svg version="1.1" id="Layer_1" xmlns="http://www.w3.org/2000/svg" xmlns:xlink="http://www.w3.org/1999/xlink" x="0px" y="0px"
	 viewBox="0 0 73 73" style="enable-background:new 0 0 73 73;" xml:space="preserve">
<style type="text/css">
	.st0{fill:#FFFFFF;}
	.st1{fill:#707071;}
</style>
<path class="st0" d="M0,0h73v73H0V0z"/>
<path class="st1" d="M40.8,4.2c4.1,3,5.7,8.4,7.2,13c4.2-0.8,8.5-1.6,12.8-0.9c2.5,0.5,4.7,1.8,5.6,4.2c1,2.8-0.1,5.9-1.5,8.4
	c-3.7,6.4-9.2,10.6-14.9,15c-0.8,7.4-2.2,16.2-6.8,22.3c-2.2,2.8-5.6,4.7-9.1,2.8c-4.7-2.6-6.5-8.7-8.2-13.5
	C21.1,56.4,14.3,58,10,55c-3.3-2.4-3.2-6.2-1.6-9.7c3.1-6.8,9.8-12.2,15.7-16.5c1-7.5,2.3-16.6,7.1-22.7C33.5,3,37.5,1.9,40.8,4.2z"
	/>
<path class="st0" d="M38.7,6.2c3.7,2.2,5.2,7.9,6.7,11.7C38.8,20.3,33,23.1,27,26.8c1-6.3,2.2-13.5,6.2-18.7
	C34.5,6.5,36.7,4.8,38.7,6.2z"/>
<path class="st1" d="M23.1,16.4c-0.2,0.9-0.4,1.9-0.4,2.8c-3.1-0.2-6.5-0.9-9.5,0c-1.8,0.5-3.2,1.9-3.1,3.9c0.2,3.2,3,6,4.3,8.9
	l-1.3,2.4c-2.5-3.3-5.7-7-5.8-11.4c-0.2-3,1.7-5.4,4.5-6.3C15.2,15.5,19.5,16.1,23.1,16.4z"/>
<path class="st0" d="M62.3,19.7c2.4,1.6,1.9,4.1,0.8,6.4c-2.7,5.5-8.1,10.1-12.8,14c0-6.8-0.4-13.6-1.7-20.3
	C52.8,19.1,58.4,17.7,62.3,19.7z"/>
<path class="st0" d="M46,20.7c1.3,7.1,1.8,14.2,1.3,21.5c-6.1,4-12.4,7.3-19.3,9.7c-1.3-7.2-1.9-14.3-1.2-21.6
	C32.8,26.4,39.2,23.1,46,20.7z"/>
<path class="st1" d="M34.2,31.1c4.2-2.2,9.2,1.1,8.6,5.8c-0.4,4.8-6,6.6-9.5,3.8C30.2,38.2,30.6,33,34.2,31.1z"/>
<path class="st0" d="M23.7,32.5c-0.1,6.9,0.4,13.5,1.6,20.3c-3.5,0.6-7.5,1.6-11.1,1c-1.7-0.4-3.4-1.1-4-2.9
	c-0.5-1.7,0.4-3.9,1.2-5.4C14.4,40.1,19.1,36.3,23.7,32.5z"/>
<path class="st1" d="M61.1,38.4c2.5,3.1,5.6,7.4,5.6,11.5c0,2.5-1.7,4.8-4,5.8c-3.3,1.5-7.7,0.8-11.2,0.6l0.5-2.7
	c3.5,0.1,9.1,1.3,11.5-2.1C65.3,48,60.9,43,59,40.2C59.8,39.7,61.1,38.4,61.1,38.4z"/>
<path class="st0" d="M47,45.9c-1,6-2.2,13.2-5.9,18.2c-1.2,1.6-3.5,3.8-5.7,2.4c-3.8-2.2-5.4-7.9-6.9-11.8
	C35.1,52.3,41,49.4,47,45.9z"/>
</svg>
