<?xml version="1.0" encoding="UTF-8" standalone="no"?>
<!DOCTYPE svg PUBLIC "-//W3C//DTD SVG 1.1//EN" "http://www.w3.org/Graphics/SVG/1.1/DTD/svg11.dtd">
<svg xmlns="http://www.w3.org/2000/svg" version="1.1" viewBox="0 0 73 73" width="73.0pt" height="73.0pt">
<path d="M 0.00 0.00 L 73.00 0.00 L 73.00 73.00 L 0.00 73.00 L 0.00 0.00 Z" fill="#ffffff" />
<path d="M 42.85 9.11 C 43.24 14.92 42.87 20.82 43.01 26.66 C 43.86 27.25 44.71 27.85 45.56 28.46 C 45.75 25.93 45.88 25.36 47.68 23.67 C 49.80 23.74 51.92 23.76 54.05 23.76 C 54.67 24.30 55.30 24.84 55.92 25.37 C 56.01 28.47 56.03 31.57 56.00 34.67 C 58.96 36.64 61.89 38.64 64.90 40.52 C 65.03 43.69 65.03 46.85 65.00 50.02 C 57.67 47.35 50.34 44.69 43.00 42.02 C 43.00 47.59 42.98 53.17 43.02 58.74 C 44.62 60.08 46.70 61.27 47.92 62.97 C 48.11 64.96 48.00 66.99 47.97 68.99 C 44.28 68.41 40.61 67.39 36.89 67.10 C 33.15 67.41 29.47 68.42 25.75 68.95 C 25.75 66.87 25.74 64.79 25.74 62.70 C 27.39 61.33 29.06 59.98 30.74 58.64 C 30.75 53.10 30.76 47.56 30.73 42.03 C 23.40 44.68 16.09 47.37 8.76 50.00 C 8.74 46.90 8.74 43.80 8.74 40.70 C 11.72 38.65 14.75 36.68 17.75 34.66 C 17.76 31.68 17.75 28.71 17.71 25.74 C 18.38 25.06 19.06 24.38 19.74 23.71 C 21.84 23.74 23.95 23.75 26.05 23.76 C 26.65 24.29 27.25 24.81 27.85 25.34 C 27.94 26.39 28.03 27.44 28.13 28.49 C 29.00 27.87 29.88 27.25 30.75 26.63 C 30.76 21.75 30.74 16.86 30.73 11.98 C 30.80 10.38 30.68 8.91 31.49 7.47 C 33.80 3.16 42.08 3.93 42.85 9.11 Z" fill="#707070" />
<path d="M 39.64 10.18 C 39.90 16.18 39.74 22.26 39.67 28.27 C 42.65 30.59 45.85 32.53 48.98 34.64 C 49.00 32.09 49.00 29.55 49.01 27.00 C 50.25 27.00 51.50 27.00 52.74 27.01 C 52.76 30.10 52.78 33.18 52.67 36.27 C 55.57 38.54 58.70 40.40 61.72 42.49 C 61.74 43.43 61.75 44.37 61.76 45.30 C 54.44 42.64 47.13 39.94 39.78 37.33 C 39.70 44.98 39.77 52.64 39.74 60.29 C 41.66 61.84 43.55 63.43 45.39 65.08 C 42.60 64.68 39.82 64.03 37.01 63.77 C 34.16 63.88 31.33 64.67 28.51 65.08 C 30.17 63.38 31.95 61.91 33.89 60.55 C 34.14 52.82 33.94 45.07 34.00 37.33 C 26.64 39.91 19.34 42.67 11.99 45.29 C 12.00 44.34 12.02 43.40 12.04 42.46 C 15.02 40.49 17.99 38.51 20.97 36.54 C 21.00 33.36 21.01 30.18 21.00 27.00 C 22.25 27.00 23.50 27.00 24.74 27.01 C 24.75 29.55 24.75 32.09 24.78 34.63 C 27.85 32.62 30.90 30.56 33.97 28.54 C 34.13 22.39 33.80 16.21 34.11 10.07 C 34.21 7.23 39.55 7.22 39.64 10.18 Z" fill="#ffffff" />
</svg>